<svg id="visual" viewBox="0 0 900 600" width="900" height="600" xmlns="http://www.w3.org/2000/svg" xmlns:xlink="http://www.w3.org/1999/xlink" version="1.1"><rect x="0" y="0" width="900" height="600" fill="#001220"></rect><path d="M0 390L21.5 396.2C43 402.3 86 414.7 128.8 412.5C171.7 410.3 214.3 393.7 257.2 391.3C300 389 343 401 385.8 409.5C428.7 418 471.3 423 514.2 416.8C557 410.7 600 393.3 642.8 383.8C685.7 374.3 728.3 372.7 771.2 378.7C814 384.7 857 398.3 878.5 405.2L900 412L900 601L878.5 601C857 601 814 601 771.2 601C728.3 601 685.7 601 642.8 601C600 601 557 601 514.2 601C471.3 601 428.7 601 385.8 601C343 601 300 601 257.2 601C214.3 601 171.7 601 128.8 601C86 601 43 601 21.5 601L0 601Z" fill="#004c3c"></path><path d="M0 477L21.5 472C43 467 86 457 128.8 447.8C171.7 438.7 214.3 430.3 257.2 421.5C300 412.7 343 403.3 385.8 406.7C428.7 410 471.3 426 514.2 438.7C557 451.3 600 460.7 642.8 454.7C685.7 448.7 728.3 427.3 771.2 422.5C814 417.7 857 429.3 878.5 435.2L900 441L900 601L878.5 601C857 601 814 601 771.2 601C728.3 601 685.7 601 642.8 601C600 601 557 601 514.2 601C471.3 601 428.7 601 385.8 601C343 601 300 601 257.2 601C214.3 601 171.7 601 128.8 601C86 601 43 601 21.5 601L0 601Z" fill="#005d49"></path><path d="M0 472L21.5 475.8C43 479.7 86 487.3 128.8 486.3C171.7 485.3 214.3 475.7 257.2 469.3C300 463 343 460 385.8 458C428.7 456 471.3 455 514.2 460.5C557 466 600 478 642.8 476C685.7 474 728.3 458 771.2 457.8C814 457.7 857 473.3 878.5 481.2L900 489L900 601L878.5 601C857 601 814 601 771.2 601C728.3 601 685.7 601 642.8 601C600 601 557 601 514.2 601C471.3 601 428.7 601 385.8 601C343 601 300 601 257.2 601C214.3 601 171.7 601 128.8 601C86 601 43 601 21.5 601L0 601Z" fill="#006f57"></path><path d="M0 516L21.5 517.7C43 519.3 86 522.7 128.8 525.3C171.7 528 214.3 530 257.2 526.5C300 523 343 514 385.8 506C428.7 498 471.3 491 514.2 491C557 491 600 498 642.8 505.5C685.7 513 728.3 521 771.2 521.5C814 522 857 515 878.5 511.5L900 508L900 601L878.5 601C857 601 814 601 771.2 601C728.3 601 685.7 601 642.8 601C600 601 557 601 514.2 601C471.3 601 428.7 601 385.8 601C343 601 300 601 257.2 601C214.3 601 171.7 601 128.8 601C86 601 43 601 21.5 601L0 601Z" fill="#008165"></path><path d="M0 530L21.5 534.8C43 539.7 86 549.3 128.8 552C171.7 554.7 214.3 550.3 257.2 551.5C300 552.7 343 559.3 385.8 562.3C428.7 565.3 471.3 564.7 514.2 563.7C557 562.7 600 561.3 642.8 554.8C685.7 548.3 728.3 536.7 771.2 532.2C814 527.7 857 530.3 878.5 531.7L900 533L900 601L878.5 601C857 601 814 601 771.2 601C728.3 601 685.7 601 642.8 601C600 601 557 601 514.2 601C471.3 601 428.7 601 385.8 601C343 601 300 601 257.2 601C214.3 601 171.7 601 128.8 601C86 601 43 601 21.5 601L0 601Z" fill="#009473"></path></svg>