<svg id="visual" viewBox="0 0 960 540" width="960" height="540" xmlns="http://www.w3.org/2000/svg" xmlns:xlink="http://www.w3.org/1999/xlink" version="1.1"><rect x="0" y="0" width="960" height="540" fill="#001220"></rect><path d="M0 180L22.8 181.3C45.7 182.7 91.3 185.3 137 189.7C182.7 194 228.3 200 274 191C319.7 182 365.3 158 411.2 151C457 144 503 154 548.8 160C594.7 166 640.3 168 686 177.5C731.7 187 777.3 204 823 212.3C868.7 220.7 914.3 220.3 937.2 220.2L960 220L960 0L937.2 0C914.3 0 868.7 0 823 0C777.3 0 731.7 0 686 0C640.3 0 594.7 0 548.8 0C503 0 457 0 411.2 0C365.3 0 319.7 0 274 0C228.3 0 182.7 0 137 0C91.3 0 45.7 0 22.8 0L0 0Z" fill="#004a3a"></path><path d="M0 149L22.8 148.5C45.7 148 91.3 147 137 141.2C182.7 135.3 228.3 124.7 274 118.5C319.7 112.3 365.3 110.7 411.2 119.3C457 128 503 147 548.8 146.8C594.7 146.7 640.3 127.3 686 126.8C731.7 126.3 777.3 144.7 823 148.5C868.7 152.3 914.3 141.7 937.2 136.3L960 131L960 0L937.2 0C914.3 0 868.7 0 823 0C777.3 0 731.7 0 686 0C640.3 0 594.7 0 548.8 0C503 0 457 0 411.2 0C365.3 0 319.7 0 274 0C228.3 0 182.7 0 137 0C91.3 0 45.7 0 22.8 0L0 0Z" fill="#005744"></path><path d="M0 106L22.8 111C45.7 116 91.3 126 137 121.8C182.7 117.7 228.3 99.3 274 97.8C319.7 96.3 365.3 111.7 411.2 113.7C457 115.7 503 104.3 548.8 102.8C594.7 101.3 640.3 109.7 686 117.8C731.7 126 777.3 134 823 136.2C868.7 138.3 914.3 134.7 937.2 132.8L960 131L960 0L937.2 0C914.3 0 868.7 0 823 0C777.3 0 731.7 0 686 0C640.3 0 594.7 0 548.8 0C503 0 457 0 411.2 0C365.3 0 319.7 0 274 0C228.3 0 182.7 0 137 0C91.3 0 45.7 0 22.8 0L0 0Z" fill="#00644f"></path><path d="M0 77L22.8 76.3C45.7 75.7 91.3 74.3 137 72.8C182.7 71.3 228.3 69.7 274 72.8C319.7 76 365.3 84 411.2 83.8C457 83.7 503 75.3 548.8 75.5C594.7 75.7 640.3 84.3 686 90.2C731.7 96 777.3 99 823 98.2C868.7 97.3 914.3 92.7 937.2 90.3L960 88L960 0L937.2 0C914.3 0 868.7 0 823 0C777.3 0 731.7 0 686 0C640.3 0 594.7 0 548.8 0C503 0 457 0 411.2 0C365.3 0 319.7 0 274 0C228.3 0 182.7 0 137 0C91.3 0 45.7 0 22.8 0L0 0Z" fill="#00725a"></path><path d="M0 39L22.8 39.3C45.7 39.7 91.3 40.3 137 44.5C182.7 48.7 228.3 56.3 274 56.8C319.7 57.3 365.3 50.7 411.2 50.5C457 50.3 503 56.7 548.8 55.3C594.7 54 640.3 45 686 42.2C731.7 39.3 777.3 42.7 823 43.2C868.7 43.7 914.3 41.3 937.2 40.2L960 39L960 0L937.2 0C914.3 0 868.7 0 823 0C777.3 0 731.7 0 686 0C640.3 0 594.7 0 548.8 0C503 0 457 0 411.2 0C365.3 0 319.7 0 274 0C228.3 0 182.7 0 137 0C91.3 0 45.7 0 22.8 0L0 0Z" fill="#018065"></path></svg>