<svg id="visual" viewBox="0 0 960 540" width="960" height="540" xmlns="http://www.w3.org/2000/svg" xmlns:xlink="http://www.w3.org/1999/xlink" version="1.1"><rect x="0" y="0" width="960" height="540" fill="#001321"></rect><path d="M0 463L64 454L128 465L192 445L256 460L320 458L384 446L448 476L512 460L576 466L640 458L704 450L768 451L832 456L896 445L960 470L960 541L896 541L832 541L768 541L704 541L640 541L576 541L512 541L448 541L384 541L320 541L256 541L192 541L128 541L64 541L0 541Z" fill="#36b796"></path><path d="M0 462L64 461L128 470L192 473L256 478L320 480L384 486L448 487L512 486L576 478L640 468L704 496L768 467L832 491L896 486L960 469L960 541L896 541L832 541L768 541L704 541L640 541L576 541L512 541L448 541L384 541L320 541L256 541L192 541L128 541L64 541L0 541Z" fill="#19a07e"></path><path d="M0 514L64 498L128 494L192 493L256 504L320 508L384 504L448 492L512 481L576 503L640 491L704 492L768 483L832 509L896 485L960 486L960 541L896 541L832 541L768 541L704 541L640 541L576 541L512 541L448 541L384 541L320 541L256 541L192 541L128 541L64 541L0 541Z" fill="#008669"></path><path d="M0 510L64 510L128 530L192 512L256 523L320 527L384 528L448 503L512 525L576 509L640 505L704 509L768 518L832 508L896 528L960 523L960 541L896 541L832 541L768 541L704 541L640 541L576 541L512 541L448 541L384 541L320 541L256 541L192 541L128 541L64 541L0 541Z" fill="#006c55"></path></svg>